<!-- Generator: Adobe Illustrator 19.1.0, SVG Export Plug-In  -->
<svg version="1.1"
	 xmlns="http://www.w3.org/2000/svg" xmlns:xlink="http://www.w3.org/1999/xlink" xmlns:a="http://ns.adobe.com/AdobeSVGViewerExtensions/3.0/"
	 x="0px" y="0px" width="304.143px" height="63.197px" viewBox="0 0 304.143 63.197"
	 style="enable-background:new 0 0 304.143 63.197;" xml:space="preserve">
<style type="text/css">
	.st0{stroke:#000000;stroke-width:2.081;stroke-linecap:round;stroke-linejoin:round;}
	.st1{fill:#FFFFFF;}
</style>
<defs>
</defs>
<g>
	<path class="st0" d="M302.777,52.56c-6.36-4.711-11.17-12.145-12.387-14.123c7.851-8.211,9.549-19.705,9.618-20.199
		c0.006-0.037,0.009-0.074,0.009-0.111c0-0.286-0.153-0.554-0.405-0.7c-0.285-0.164-0.642-0.139-0.901,0.064
		c-4.85,3.795-11.733,6.658-14.648,7.777c0.216-1.271-0.131-2.436-1.009-3.309c-1.481-1.474-4.252-1.963-7.059-1.247
		c-10.661,2.722-16.677,2.086-18.411,1.793c0.017-0.118,0.032-0.234,0.046-0.342c0.642-4.81-0.545-6.656-5.077-7.903
		c-23.928-6.58-64.277-13.22-100.48-13.22c-36.203,0-76.552,6.64-100.48,13.22c-4.532,1.247-5.719,3.093-5.077,7.903
		c0.014,0.108,0.03,0.224,0.046,0.342c-1.735,0.293-7.751,0.929-18.411-1.793c-2.807-0.717-5.578-0.228-7.06,1.247
		c-0.877,0.873-1.225,2.038-1.008,3.309c-2.917-1.119-9.799-3.982-14.648-7.777c-0.26-0.203-0.616-0.227-0.901-0.064
		c-0.253,0.146-0.404,0.414-0.404,0.7c0,0.037,0.002,0.074,0.007,0.111c0.069,0.495,1.767,11.988,9.618,20.199
		c-1.216,1.979-6.026,9.412-12.385,14.123c-0.207,0.153-0.327,0.394-0.327,0.649c0,0.019,0,0.037,0.002,0.055
		c0.019,0.275,0.176,0.522,0.418,0.654c0.615,0.337,15.198,8.238,27.611,8.238c1.262,0,4.909-0.573,5.863-2.283
		c0.097-0.078,0.181-0.17,0.236-0.29c0.681-1.497,0.798-3.234,0.805-4.181c0.4,0.011,0.809,0.018,1.235,0.018
		c22.766,0,37.294-5.132,37.294-8.666c0-0.023-0.006-0.045-0.007-0.067c-0.001-0.008,0.002-0.015,0.002-0.022
		c-0.002-0.016-0.011-0.096-0.026-0.219c-0.004-0.028-0.004-0.058-0.01-0.085c-0.085-0.699-0.323-2.513-0.716-4.574
		c16.265-3.487,42.524-7.415,78.324-7.415c35.802,0,62.062,3.927,78.323,7.414c-0.394,2.064-0.63,3.876-0.716,4.576
		c-0.005,0.028-0.005,0.057-0.01,0.085c-0.015,0.123-0.023,0.203-0.025,0.219c-0.001,0.007,0.002,0.014,0.002,0.022
		c-0.002,0.022-0.007,0.044-0.007,0.067c0,3.533,14.527,8.666,37.293,8.666c0.428,0,0.836-0.007,1.236-0.018
		c0.007,0.947,0.124,2.684,0.805,4.181c0.055,0.12,0.14,0.212,0.235,0.29c0.954,1.709,4.601,2.283,5.863,2.283
		c12.413,0,26.997-7.901,27.611-8.238c0.242-0.132,0.399-0.378,0.419-0.654c0.001-0.018,0.001-0.036,0.001-0.055
		C303.103,52.954,302.983,52.713,302.777,52.56z"/>
	<path class="st1" d="M33.548,59.04c-0.182,0.66-2.691,1.501-4.476,1.501c-10.123,0-22.132-5.654-25.734-7.472
		c7.076-5.666,11.91-13.965,12.121-14.332c0.072-0.125,0.107-0.265,0.107-0.403c0-0.209-0.081-0.416-0.236-0.572
		c-5.915-5.914-8.354-14.064-9.203-17.769c5.573,3.844,12.501,6.48,14.359,7.153c1.041,5.073,3.057,17.342,3.292,19.688l0.051,0.693
		c0.062,0.984,0.194,1.986,0.557,2.931c0.007,0.105,0.034,0.211,0.086,0.312c0.014,0.028,0.097,0.183,0.261,0.436
		c0.253,0.46,0.577,0.9,0.993,1.311c1.141,1.336,3.177,3.286,6.582,5.315C33.417,58.494,33.579,58.929,33.548,59.04z"/>
	<path class="st1" d="M34.201,57.212c-0.292-0.26-0.644-0.516-1.065-0.768c-0.907-0.541-1.7-1.073-2.408-1.588
		c1.043,0.219,2.246,0.381,3.632,0.474C34.358,55.777,34.33,56.466,34.201,57.212z"/>
	<path class="st1" d="M37.211,53.805c-5.875,0-8.771-0.987-10.226-2.312c-0.524-0.61-0.833-1.064-0.975-1.292
		c-0.447-0.924-0.512-1.902-0.567-2.776l-0.057-0.751c-0.248-2.477-2.321-15.104-3.373-20.129c-0.001-0.125-0.022-0.247-0.076-0.356
		c-0.08-0.373-0.154-0.7-0.219-0.96c-0.215-0.858-0.042-1.573,0.513-2.125c1.053-1.047,3.323-1.387,5.52-0.826
		c10.851,2.771,17.018,2.178,19.038,1.833c0.768,5.281,2.336,15.076,2.82,17.736c0.083,0.459,0.195,0.879,0.333,1.264
		c0.004,0.054-0.003,0.108,0.012,0.164c1.296,4.628,8.71,3.914,15.251,3.284c3.211-0.309,6.85-0.66,7.622,0.042
		c0.021,0.02,0.036,0.036,0.046,0.058c0.005,0.043,0.01,0.078,0.013,0.106C72.467,48.459,61.016,53.805,37.211,53.805z"/>
	<path class="st1" d="M59.409,45.376c2.989-0.881,7.249-2.026,12.76-3.245c0.183,0.966,0.334,1.885,0.448,2.649
		c-1.54-0.374-3.995-0.172-7.566,0.172C63.23,45.126,61.266,45.313,59.409,45.376z"/>
	<path class="st1" d="M152.072,32.755c-50.745,0-82.475,7.874-93.762,11.26c-2.624,0.787-4.522,0.838-5.643,0.151
		c-0.753-0.461-1.234-1.315-1.469-2.609c-0.55-3.026-2.512-15.33-3.082-19.608c-0.529-3.965,0.201-5.111,3.904-6.13
		C75.844,9.267,116.02,2.656,152.072,2.656c36.053,0,76.228,6.611,100.053,13.162c3.702,1.019,4.432,2.165,3.903,6.13
		c-0.57,4.279-2.531,16.582-3.082,19.608c-0.234,1.294-0.715,2.148-1.469,2.609c-1.121,0.687-3.02,0.636-5.643-0.151
		C234.547,40.629,202.817,32.755,152.072,32.755z"/>
	<path class="st1" d="M244.736,45.376c-1.857-0.062-3.821-0.25-5.643-0.424c-3.571-0.344-6.026-0.546-7.565-0.172
		c0.113-0.766,0.263-1.682,0.446-2.65C237.482,43.348,241.747,44.495,244.736,45.376z"/>
	<path class="st1" d="M231.26,46.751c0.003-0.026,0.007-0.058,0.011-0.095c0.011-0.019,0.025-0.035,0.047-0.055
		c0.771-0.702,4.409-0.351,7.62-0.042c6.542,0.63,13.956,1.344,15.252-3.284c0.016-0.056,0.009-0.11,0.013-0.164
		c0.138-0.385,0.25-0.805,0.334-1.264c0.483-2.661,2.052-12.456,2.819-17.736c2.02,0.345,8.188,0.938,19.038-1.833
		c2.197-0.561,4.468-0.221,5.52,0.826c0.556,0.552,0.727,1.267,0.514,2.125c-0.066,0.26-0.14,0.587-0.22,0.96
		c-0.055,0.11-0.076,0.232-0.076,0.356c-1.053,5.025-3.125,17.652-3.373,20.129l-0.058,0.751c-0.055,0.874-0.119,1.852-0.566,2.775
		c-0.142,0.229-0.45,0.683-0.976,1.293c-1.454,1.324-4.351,2.312-10.227,2.312C243.165,53.805,231.713,48.476,231.26,46.751z"/>
	<path class="st1" d="M273.418,54.857c-0.709,0.515-1.502,1.047-2.409,1.588c-0.421,0.251-0.773,0.507-1.064,0.768
		c-0.13-0.747-0.158-1.435-0.159-1.882C271.17,55.238,272.375,55.076,273.418,54.857z"/>
	<path class="st1" d="M275.072,60.541c-1.784,0-4.295-0.841-4.477-1.501c-0.03-0.111,0.133-0.546,1.241-1.208
		c3.404-2.03,5.44-3.979,6.582-5.315c0.415-0.411,0.739-0.851,0.992-1.311c0.164-0.253,0.247-0.409,0.262-0.437
		c0.051-0.1,0.079-0.207,0.086-0.312c0.361-0.944,0.493-1.946,0.556-2.93l0.053-0.693c0.234-2.347,2.25-14.615,3.29-19.688
		c1.859-0.673,8.788-3.31,14.36-7.153c-0.85,3.705-3.288,11.855-9.203,17.769c-0.155,0.156-0.236,0.363-0.236,0.572
		c0,0.138,0.035,0.277,0.107,0.403c0.211,0.367,5.045,8.666,12.121,14.332C297.204,54.887,285.195,60.541,275.072,60.541z"/>
</g>
</svg>